<?xml version="1.0" encoding="UTF-8"?>
<svg version="1.1" xmlns="http://www.w3.org/2000/svg" width="500" height="500">
<path d="M0 0 C165 0 330 0 500 0 C500 165 500 330 500 500 C335 500 170 500 0 500 C0 335 0 170 0 0 Z " fill="#010101" transform="translate(0,0)"/>
<path d="M0 0 C165 0 330 0 500 0 C500 165 500 330 500 500 C335 500 170 500 0 500 C0 335 0 170 0 0 Z M189 25 C187.64310059 25.38816895 187.64310059 25.38816895 186.25878906 25.78417969 C151.363336 35.9395483 120.20913848 52.60420764 93.68359375 77.50390625 C91.39715027 79.63059822 89.07012916 81.67072561 86.6875 83.6875 C83.42687475 86.51874251 80.61152407 89.56973725 77.828125 92.8671875 C76.58252152 94.32039156 75.29900942 95.74174585 73.984375 97.1328125 C62.81378755 108.98649343 54.01679047 122.87878522 46 137 C45.49025635 137.88389404 45.49025635 137.88389404 44.97021484 138.78564453 C38.87390522 149.4184715 34.27943819 160.52899471 30 172 C29.75121094 172.65967773 29.50242187 173.31935547 29.24609375 173.99902344 C26.31967408 181.86273115 24.20886235 189.83760942 22.3125 198 C22.00856323 199.2981665 22.00856323 199.2981665 21.69848633 200.62255859 C18.32006215 215.79093614 17.62717008 230.54452585 17.62939453 246.0300293 C17.62504823 249.40010177 17.58869164 252.76883198 17.55078125 256.13867188 C17.43359352 278.96275442 20.20493362 303.19610203 28.96484375 324.47363281 C29.924865 326.81662808 30.83099442 329.17183553 31.71875 331.54296875 C38.92170586 350.47964116 48.04697188 368.60246565 60 385 C60.40428223 385.5583252 60.80856445 386.11665039 61.22509766 386.69189453 C66.55941458 393.99671616 72.34762498 400.75543655 78.53515625 407.34765625 C80.49548868 409.45711064 82.36054683 411.58945942 84.1875 413.8125 C87.43564414 417.63707536 91.17869895 420.76377853 95 424 C96.0573756 424.92941511 97.11325171 425.86053775 98.16796875 426.79296875 C110.18894279 437.3620523 123.13076391 446.0398272 137 454 C137.89259521 454.51626953 137.89259521 454.51626953 138.80322266 455.04296875 C167.65312103 471.57840323 202.32888888 482.06822623 235.62890625 482.203125 C236.7362059 482.20882507 237.84350555 482.21452515 238.98435974 482.22039795 C241.32167619 482.22981064 243.65900569 482.23636702 245.99633789 482.24023438 C249.52709849 482.24990306 253.0572672 482.28094796 256.58789062 482.3125 C267.25918898 482.36269257 277.3615672 482.29802767 287.77514648 479.77807617 C291.06368302 478.98463489 294.30513369 478.48746174 297.65625 478.03515625 C304.13629154 477.07086435 310.25745035 475.40156668 316.5 473.4375 C317.62220947 473.08671387 318.74441895 472.73592773 319.90063477 472.37451172 C352.99199403 461.76671428 382.15065471 444.5088471 407.7109375 421.04296875 C409.29021019 419.63348135 410.91835477 418.27754239 412.58203125 416.96875 C414.76036473 415.19511498 416.50565318 413.45112515 418.3125 411.3125 C420.76785055 408.43381315 423.26331962 405.60837525 425.8125 402.8125 C452.49166287 372.69582961 470.82058286 335.30393253 479 296 C479.13806061 295.34164154 479.27612122 294.68328308 479.41836548 294.00497437 C482.1617526 280.46309427 482.49591474 267.06232341 482.44604492 253.27661133 C482.43753619 249.70270046 482.46641205 246.13039498 482.49804688 242.55664062 C482.54265554 227.92884814 481.20216693 214.26618523 478 200 C477.76450439 198.86860596 477.52900879 197.73721191 477.28637695 196.5715332 C468.89951449 157.5857007 448.70549002 121.62135656 421.5078125 92.71875 C419.73497467 90.79679497 418.06056591 88.88322761 416.41015625 86.86328125 C414.46130074 84.54802827 412.61689028 82.62198815 410.3125 80.6875 C408.12801456 78.83411957 405.97771469 76.97895506 403.89453125 75.01171875 C377.43741575 50.10286818 339.28599193 29.28158519 303.15625 23.66796875 C300 23 300 23 296.82617188 21.53125 C292.80321955 19.77767988 288.97134627 19.23035506 284.625 18.83203125 C283.81047363 18.75265823 282.99594727 18.67328522 282.15673828 18.59150696 C272.20289986 17.71548305 262.23394307 17.66398676 252.24804688 17.68432617 C249.00356705 17.68749651 245.75999383 17.66388084 242.515625 17.63867188 C224.08176306 17.5832521 206.71429031 19.8976346 189 25 Z " fill="#FEFEFE" transform="translate(0,0)"/>
<path d="M0 0 C74.91 0 149.82 0 227 0 C227 16.17 227 32.34 227 49 C198.95 49 170.9 49 142 49 C142 129.52 142 210.04 142 293 C122.86 293 103.72 293 84 293 C84 212.48 84 131.96 84 49 C56.28 49 28.56 49 0 49 C0 32.83 0 16.66 0 0 Z " fill="#FCFCFC" transform="translate(95,110)"/>
<path d="M0 0 C12.87 0 25.74 0 39 0 C39 49.83 39 99.66 39 151 C26.13 151 13.26 151 0 151 C0 101.17 0 51.34 0 0 Z " fill="#F7F7F7" transform="translate(310,239)"/>
<path d="M0 0 C4.35204529 3.73032453 6.17473629 7.43197023 7.078125 13.0859375 C7.51827373 20.8685674 5.63216995 26.28075372 0.625 32.25 C-6.23010161 38.52661202 -13.33282549 38.84827391 -22.18359375 38.65234375 C-26.70215838 38.37236213 -29.58047237 37.25626231 -32.859375 34.05859375 C-33.35953125 33.46175781 -33.8596875 32.86492187 -34.375 32.25 C-35.15617187 31.43208984 -35.15617187 31.43208984 -35.953125 30.59765625 C-40.20643168 25.25765308 -40.03577079 19.42190297 -39.79296875 12.8203125 C-39.04218965 6.40711536 -37.02877075 2.97894215 -32.625 -1.625 C-21.55083154 -8.86580246 -10.92922533 -5.66700573 0 0 Z " fill="#F9F9F9" transform="translate(346.375,181.75)"/>
<path d="M0 0 C0 0.33 0 0.66 0 1 C-0.89307861 1.12060791 -0.89307861 1.12060791 -1.80419922 1.24365234 C-4.49573761 1.61208984 -7.18530069 1.99337827 -9.875 2.375 C-10.81214844 2.50132813 -11.74929687 2.62765625 -12.71484375 2.7578125 C-13.61074219 2.88671875 -14.50664062 3.015625 -15.4296875 3.1484375 C-16.67081299 3.32125244 -16.67081299 3.32125244 -17.93701172 3.49755859 C-20.20778385 3.86131764 -20.20778385 3.86131764 -22 6 C-22 5.34 -22 4.68 -22 4 C-23.65 4 -25.3 4 -27 4 C-19.67127833 -0.40463575 -8.37272918 -0.34174405 0 0 Z " fill="#5A605A" transform="translate(232,18)"/>
<path d="M0 0 C0.66 0.33 1.32 0.66 2 1 C-0.31 3.31 -2.62 5.62 -5 8 C-5.66 7.67 -6.32 7.34 -7 7 C-4.66666667 4.66666667 -2.33333333 2.33333333 0 0 Z " fill="#C2C2C2" transform="translate(317,178)"/>
</svg>
